HIERARCHY
ROOT Hips
{
    OFFSET 9.072121620178223 88.17460632324219 -17.733535766601562
    CHANNELS 6 Xposition Yposition Zposition Zrotation Xrotation Yrotation
    JOINT RightUpLeg
    {
        OFFSET -9.072121620178223 0.0 0.0
        CHANNELS 3 Zrotation Xrotation Yrotation
        JOINT RightLeg
        {
            OFFSET 0.0 -43.84076690673828 0.0
            CHANNELS 3 Zrotation Xrotation Yrotation
            JOINT RightFoot
            {
                OFFSET 0.0 -44.333839416503906 0.0
                CHANNELS 3 Zrotation Xrotation Yrotation
                End Site
                {
                    OFFSET 0.0 0.0 17.733535766601562
                }
            }
        }
    }
    JOINT LeftUpLeg
    {
        OFFSET 9.072121620178223 0.0 0.0
        CHANNELS 3 Zrotation Xrotation Yrotation
        JOINT LeftLeg
        {
            OFFSET 0.0 -43.84076690673828 0.0
            CHANNELS 3 Zrotation Xrotation Yrotation
            JOINT LeftFoot
            {
                OFFSET 0.0 -44.333839416503906 0.0
                CHANNELS 3 Zrotation Xrotation Yrotation
                End Site
                {
                    OFFSET 0.0 0.0 17.733535766601562
                }
            }
        }
    }
    JOINT Spine
    {
        OFFSET 0.0 22.50390625 0.0
        CHANNELS 3 Zrotation Xrotation Yrotation
        JOINT Spine3
        {
            OFFSET 0.0 23.501981735229492 0.0
            CHANNELS 3 Zrotation Xrotation Yrotation
            JOINT Neck
            {
                OFFSET 0.0 9.648998260498047 0.0
                CHANNELS 3 Zrotation Xrotation Yrotation
                End Site
                {
                    OFFSET 0.0 3.8595993518829346 0.0
                }
            }
            JOINT LeftArm
            {
                OFFSET 11.219406127929688 0.0 0.0
                CHANNELS 3 Zrotation Xrotation Yrotation
                JOINT LeftForeArm
                {
                    OFFSET 26.45674705505371 0.0 0.0
                    CHANNELS 3 Zrotation Xrotation Yrotation
                    JOINT LeftHand
                    {
                        OFFSET 19.199024200439453 0.0 0.0
                        CHANNELS 3 Zrotation Xrotation Yrotation
                        End Site
                        {
                            OFFSET 7.679609775543213 0.0 0.0
                        }
                    }
                }
            }
            JOINT RightArm
            {
                OFFSET -11.219406127929688 0.0 0.0
                CHANNELS 3 Zrotation Xrotation Yrotation
                JOINT RightForeArm
                {
                    OFFSET -26.45674705505371 0.0 0.0
                    CHANNELS 3 Zrotation Xrotation Yrotation
                    JOINT RightHand
                    {
                        OFFSET -19.199024200439453 0.0 0.0
                        CHANNELS 3 Zrotation Xrotation Yrotation
                        End Site
                        {
                            OFFSET -7.679609775543213 0.0 0.0
                        }
                    }
                }
            }
        }
    }
}
MOTION
Frames: 7
Frame Time: 0.03333333333333333
8.915067155612633e-05 87.52301788330078 -0.0013492051512002945 -4.23387281547414 -6.588639059591079 -12.242430465065647 -0.45142530413936577 17.102029684413182 -0.4540561280248926 -0.8189195736504757 10.688077646515898 -0.12107952200464088 5.517382872562698e-32 -3.1805546814635168e-15 1.987846675914698e-15 4.706930742579052 18.136610705200425 -2.107176726163515 -2.020855922058412 11.825101020102206 -0.9007580375706528 3.975693351829396e-16 -7.241565020238542e-33 -2.087239009710433e-15 3.2384010277066104 18.396063414701484 -1.6619276436126922 1.269817217765109e-07 1.779457867429776e-06 -3.446939901831052 0.830888372754823 10.593248627086243 177.55689870294415 124.89515359860131 -50.187021356053876 -176.7743103883895 1.7352816255283557e-06 9.465899263478584e-07 46.69285682686608 3.1805546814635168e-15 0.0 0.0 -125.0572415374585 -34.48909058233046 176.4536785367685 3.1872011874619306e-06 -2.1992971851253483e-06 -49.204620941783 -3.1805546814635168e-15 0.0 0.0
7.647040183655918e-05 87.52300262451172 -0.0013423861237242818 -4.193192188931038 -6.660922557839892 -11.824073810443624 0.2567306573685857 17.333553347707237 -0.6332120562931184 -1.2992884913075347 10.627202345879354 -0.13375031095001202 1.793149433582877e-32 3.1805546814635176e-15 -6.46050169672277e-16 5.265697374246368 17.84631874139359 -2.2086400322982933 -2.350096500363467 11.890047174679461 -0.9246523633911048 0.0 0.0 -4.969616689786745e-17 2.2333923513035114 18.49871001695479 -1.309458005665342 -4.398028202327911e-08 -5.453875015524126e-07 -3.2500539392679295 1.2341376664170978 10.586993547497645 177.71615732398658 123.68592493828102 -48.552724966079516 -176.9381452363284 4.0893962696023125e-06 -5.448087441028399e-06 43.15261581656575 6.3611093629270335e-15 3.531125038440127e-31 6.3611093629270335e-15 -125.60241982973272 -35.90059059337255 176.51899735834365 2.6455959010978746e-06 -5.059471726634544e-06 -51.10090237769861 -1.1927080055488188e-15 0.0 0.0
0.00010399703751318157 87.52310943603516 -0.0013584692496806383 -4.207659519633238 -6.610231238188086 -11.010248132909588 0.9599890090344047 17.35541778991105 -0.8410402945596324 -1.527712475469522 10.477766177348135 -0.21070837517818963 3.975693351829396e-16 -4.827710013492361e-33 -1.3914926731402886e-15 5.972164221722562 17.367022498865936 -2.3630545041426583 -2.293937087768107 11.978676804116194 -1.0860977407015098 3.975693351829395e-16 -4.969616689786744e-17 7.95138670365879e-16 1.3304943506110827 18.658605695440585 -1.0275280578814387 -5.760374263192631e-09 3.748594263082432e-07 -3.1636352265373917 1.7330857378424513 9.997226169873963 177.99155549533387 122.4302574240634 -45.87126129302917 -176.6291788139764 -3.0409594792859234e-06 2.723812755382337e-06 39.43516729473382 3.531125038440127e-31 -6.3611093629270335e-15 6.3611093629270335e-15 -126.17521486098866 -36.45269120377685 176.85066086214724 -1.298186319008844e-06 -1.9279963406005e-06 -55.44468898243222 1.1927080055488188e-15 3.1805546814635168e-15 -3.310429723537619e-32
0.00013610979658551514 87.52310180664062 -0.0013444583164528012 -4.1818424877719576 -6.56524138401674 -10.02797372296795 1.9716201717916955 17.615983122654267 -1.1095818472891894 -1.7744788623000176 9.816440537947118 -0.29220828539598964 1.643361109503538e-34 1.2424041724466861e-17 -1.515733090384957e-15 6.848833427222427 17.049661223068483 -2.533731448705576 -2.2827842890768695 11.773801452984047 -1.2124996229341443 3.975693351829396e-16 -4.969616689786745e-17 -1.2921003393445538e-15 0.15645151609677846 18.70376653379288 -0.5993473295925801 -1.4055846421581068e-09 7.420382274798493e-07 -3.1541761837690934 2.5394184910249282 9.021144379484188 178.69970255796193 120.59358361598728 -41.28129548167027 -176.75478885991603 -9.270314457613838e-08 4.73675195515018e-06 34.38230765210692 -3.1805546814635168e-15 0.0 0.0 -127.0768822313067 -37.45585947954786 177.25231394481528 1.7057908062231325e-08 3.814650072686101e-06 -59.50368779761682 -4.373262687012335e-15 0.0 0.0
0.00014852898311801255 87.52320861816406 -0.0013561424566432834 -4.418009070993827 -6.501285012520854 -9.671480443378902 2.7299529153854456 17.57461730839255 -1.268166871809829 -1.862656621410424 9.662502646504532 -0.3581929927243877 -4.969616689786745e-16 3.16813063973905e-15 -1.4908850069360232e-16 7.566230469369768 16.768881682781977 -2.6387821215544998 -1.9775326788574599 11.636976003127389 -1.3596073663784172 2.4440281943305077e-32 3.1308585145656493e-15 -8.945310041616142e-16 -0.7164118267621942 18.749123252754114 -0.24753783238831786 9.963065258319638e-09 -1.3700080044367542e-06 -2.9366424470424723 3.2466488917244503 8.495572783197762 178.9440135230409 118.83448053388638 -36.04261177371104 -176.64012790949124 -1.5489424803487811e-06 -1.6387822604829184e-06 30.629210492729772 -1.5902773407317576e-15 -6.361109362927032e-15 6.361109362927032e-15 -127.71601358440006 -36.83290664296191 177.25756840420294 -6.784957614695354e-07 -4.3563181675606296e-06 -62.9409814189514 -1.987846675914698e-15 0.0 0.0
0.0001987635187106207 87.52313995361328 -0.0013068390544503927 -4.63945244641312 -6.160672636779329 -8.932703156493018 4.153379319220177 17.307064197541038 -1.5466314165566188 -2.425303585501281 9.768982903505611 -0.42853640491528816 9.93923337957349e-17 6.2120208622334304e-18 -9.193790876105477e-16 8.631696166905197 16.035297010622024 -2.7062804389155874 -2.0871917749541256 11.805079177406638 -1.4894637909107915 -7.951386703658792e-16 3.2302508483613843e-15 9.93923337957349e-16 -1.9174377471001647 18.292324490449786 0.2704857997935458 -2.2611597763673212e-07 -9.020830796986483e-08 -2.731695303526236 4.214827144747832 8.708409822591998 178.31552090005835 117.73411844307766 -31.519737470146325 -176.92326555159556 -6.658347989875067e-06 1.0000886772657603e-05 27.04586592972166 -3.1805546814635168e-15 0.0 0.0 -127.99237983915792 -37.442737351866306 178.26843652579677 -2.1904209629048157e-06 1.1853591095660185e-06 -65.34132925450909 -2.3854160110976376e-15 3.1805546814635168e-15 6.3611093629270335e-15
0.00019624321430455893 87.52323913574219 -0.0013206725707277656 -4.950825137966387 -5.706305770561197 -8.449173844011934 5.384101462564971 16.744328933249765 -1.7128905937994612 -2.840938475034182 9.797885923596674 -0.48231855356755443 1.4908850069360235e-16 -3.1805546814635176e-15 -1.869818279532263e-15 9.84162449480477 15.084531926640627 -2.743063803216221 -2.1426496940697533 11.795632264506601 -1.630366186218263 0.0 0.0 -4.969616689786745e-16 -3.2597314775743427 17.82632903749285 0.8251943630769579 3.1726130971303806e-07 4.235956511342248e-07 -2.5061802631222156 4.903319034299914 8.904804609020541 178.1721444932304 117.01860055993092 -28.952700766720568 -176.84151417880682 5.537858405341547e-06 7.049476660435677e-07 24.070967556947817 4.770832022195274e-15 -1.3241718894150476e-31 -3.1805546814635164e-15 -127.95165891438477 -37.50768387467238 179.2187363011232 1.4434358303170948e-06 -4.664591560528072e-06 -67.73413083057416 2.782985346280577e-15 1.5448672043175555e-31 6.3611093629270335e-15
